<svg width="200" height="64" viewBox="0 0 200 64" fill="none" xmlns="http://www.w3.org/2000/svg">
<rect width="200" height="64" rx="32" fill="#FFEFB3"/>
<path d="M42.0918 42H38.5098V25.6758H38.4004L33.7793 28.6289V25.375L38.6738 22.2031H42.0918V42ZM54.2051 42.2734C52.6191 42.2734 51.2565 41.877 50.1172 41.084C48.987 40.2819 48.1165 39.1198 47.5059 37.5977C46.9043 36.0755 46.6035 34.2435 46.6035 32.1016C46.6035 29.9688 46.9043 28.1413 47.5059 26.6191C48.1165 25.0879 48.9915 23.9258 50.1309 23.1328C51.2702 22.3307 52.6283 21.9297 54.2051 21.9297C55.7728 21.9297 57.1263 22.3307 58.2656 23.1328C59.4141 23.9258 60.2891 25.0879 60.8906 26.6191C61.5013 28.1413 61.8066 29.9688 61.8066 32.1016C61.8066 34.2435 61.5013 36.0755 60.8906 37.5977C60.2891 39.1198 59.4186 40.2819 58.2793 41.084C57.1491 41.877 55.791 42.2734 54.2051 42.2734ZM54.2051 39.293C55.0436 39.293 55.7591 39.0241 56.3516 38.4863C56.9531 37.9395 57.4134 37.1328 57.7324 36.0664C58.0605 34.9909 58.2246 33.6693 58.2246 32.1016C58.2246 30.5521 58.0605 29.2396 57.7324 28.1641C57.4134 27.0794 56.9531 26.2637 56.3516 25.7168C55.75 25.1608 55.0345 24.8828 54.2051 24.8828C53.3757 24.8828 52.6602 25.1608 52.0586 25.7168C51.457 26.2637 50.9922 27.0794 50.6641 28.1641C50.3451 29.2396 50.1855 30.5521 50.1855 32.1016C50.1855 33.6693 50.3451 34.9909 50.6641 36.0664C50.9922 37.1328 51.4525 37.9395 52.0449 38.4863C52.6465 39.0241 53.3665 39.293 54.2051 39.293ZM84.666 37.9805H81.6309V28.875H76.6543V33.9609H65.0879V21.3555H68.123V25.3477H73.6465V21.3555H76.6543V26.4141H81.6309V19.7422H84.666V37.9805ZM85.2129 43.9414H68.3691V36.1758H71.459V41.4805H85.2129V43.9414ZM73.6465 31.5547V27.6992H68.123V31.5547H73.6465ZM117.342 36.3125H94.8105V33.9336H117.342V36.3125ZM114.799 43.9414H97.5996V37.7617H100.635V41.5352H114.799V43.9414ZM116.111 24.1719H95.9316V21.875H104.545V19.5508H107.58V21.875H116.111V24.1719ZM106.049 25.0469C108.692 25.0469 110.725 25.3704 112.146 26.0176C113.568 26.6647 114.279 27.6172 114.279 28.875C114.279 30.0964 113.564 31.0306 112.133 31.6777C110.702 32.3249 108.674 32.6484 106.049 32.6484C103.424 32.6484 101.4 32.3249 99.9785 31.6777C98.5566 31.0306 97.8457 30.0964 97.8457 28.875C97.8457 27.6172 98.5521 26.6647 99.9648 26.0176C101.378 25.3704 103.406 25.0469 106.049 25.0469ZM106.049 27.207C104.354 27.207 103.077 27.3483 102.221 27.6309C101.364 27.9134 100.945 28.3281 100.963 28.875C100.945 29.4128 101.364 29.8138 102.221 30.0781C103.077 30.3424 104.354 30.4701 106.049 30.4609C107.753 30.4701 109.029 30.3424 109.877 30.0781C110.734 29.8138 111.162 29.4128 111.162 28.875C111.162 28.3281 110.734 27.9134 109.877 27.6309C109.029 27.3483 107.753 27.207 106.049 27.207ZM141.568 32.0195H119.01V29.6133H141.568V32.0195ZM138.889 28.0273H121.881V20.3438H138.67V22.7773H124.916V25.6211H138.889V28.0273ZM138.725 39.9219H124.67V41.8086H139.408V44.1875H121.689V37.7344H135.744V36.0117H121.662V33.7148H138.725V39.9219ZM163.854 44.4336H160.791V19.7148H163.854V44.4336ZM156.471 22.3398C156.471 26.2682 155.582 29.7181 153.805 32.6895C152.027 35.6517 149.079 38.1081 144.959 40.0586L143.373 37.625C146.554 36.112 148.947 34.3027 150.551 32.1973C152.164 30.0827 153.107 27.599 153.381 24.7461H144.631V22.3398H156.471Z" fill="#363639"/>
</svg>
